0
SECTION
2
HEADER
9
$INSUNITS
70
4
9
$ACADVER
1
AC1014
9
$HANDSEED
5
FFFF
0
ENDSEC
0
SECTION
2
TABLES
0
TABLE
2
VPORT
5
8
100
AcDbSymbolTable
0
ENDTAB
0
TABLE
2
LTYPE
5
5
100
AcDbSymbolTable
0
LTYPE
5
14
100
AcDbSymbolTableRecord
100
AcDbLinetypeTableRecord
2
BYBLOCK
70
0
0
LTYPE
5
15
100
AcDbSymbolTableRecord
100
AcDbLinetypeTableRecord
2
BYLAYER
70
0
0
ENDTAB
0
TABLE
2
LAYER
5
2
100
AcDbSymbolTable
70
2
0
LAYER
5
50
100
AcDbSymbolTableRecord
100
AcDbLayerTableRecord
2
0
70
0
6
CONTINUOUS
0
ENDTAB
0
TABLE
2
STYLE
5
3
100
AcDbSymbolTable
70
1
0
STYLE
5
11
100
AcDbSymbolTableRecord
100
AcDbTextStyleTableRecord
2
STANDARD
70
0
0
ENDTAB
0
TABLE
2
VIEW
5
6
100
AcDbSymbolTable
70
0
0
ENDTAB
0
TABLE
2
UCS
5
7
100
AcDbSymbolTable
70
0
0
ENDTAB
0
TABLE
2
APPID
5
9
100
AcDbSymbolTable
70
2
0
APPID
5
12
100
AcDbSymbolTableRecord
100
AcDbRegAppTableRecord
2
ACAD
70
0
0
ENDTAB
0
TABLE
2
DIMSTYLE
5
A
100
AcDbSymbolTable
70
1
0
ENDTAB
0
TABLE
2
BLOCK_RECORD
5
1
100
AcDbSymbolTable
70
1
0
BLOCK_RECORD
5
1F
100
AcDbSymbolTableRecord
100
AcDbBlockTableRecord
2
*MODEL_SPACE
0
BLOCK_RECORD
5
1B
100
AcDbSymbolTableRecord
100
AcDbBlockTableRecord
2
*PAPER_SPACE
0
ENDTAB
0
ENDSEC
0
SECTION
2
BLOCKS
0
BLOCK
5
20
100
AcDbEntity
100
AcDbBlockBegin
2
*MODEL_SPACE
0
ENDBLK
5
21
100
AcDbEntity
100
AcDbBlockEnd
0
BLOCK
5
1C
100
AcDbEntity
100
AcDbBlockBegin
2
*PAPER_SPACE
0
ENDBLK
5
1D
100
AcDbEntity
100
AcDbBlockEnd
0
ENDSEC
0
SECTION
2
ENTITIES
0
LWPOLYLINE
5
100
100
AcDbEntity
8
0
100
AcDbPolyline
90
36
70
1
43
0.0
10
18.719991700328023
20
-7.0400220695428208
42
-0.46307255762833632
10
17.283992115311619
20
-7.5540463698501181
10
9.7102540378443862
20
-3.1813466520526856
10
7.6102540378443839
20
-6.8186533479473272
10
15.183992115311611
20
-11.191353065744764
42
-0.46307255762833666
10
15.456833805591172
20
-12.691977336346527
42
-0.18181879076908894
10
3.2631578947368389
20
-19.731999405889322
42
-0.46307255762833366
10
2.0999999999999979
20
-18.745399435594859
10
2.0999999999999988
20
-9.9999999999999982
10
-2.1000000000000005
20
-9.9999999999999982
10
-2.100000000000005
20
-18.745399435594855
42
-0.46307255762833455
10
-3.2631578947368434
20
-19.731999405889319
42
-0.18181879076908916
10
-15.456833805591184
20
-12.691977336346504
42
-0.46307255762833466
10
-15.183992115311629
20
-11.191353065744744
10
-7.6102540378443875
20
-6.8186533479473184
10
-9.7102540378443862
20
-3.1813466520526754
10
-17.283992115311623
20
-7.5540463698500968
42
-0.46307255762833976
10
-18.719991700328031
20
-7.0400220695427844
42
-0.1818187907690888
10
-18.719991700328023
20
7.0400220695428111
42
-0.46307255762833432
10
-17.283992115311623
20
7.5540463698501092
10
-9.7102540378443862
20
3.1813466520526799
10
-7.6102540378443875
20
6.8186533479473219
10
-15.183992115311622
20
11.191353065744753
42
-0.46307255762833638
10
-15.456833805591186
20
12.691977336346511
42
-0.18181879076908916
10
-3.2631578947368411
20
19.731999405889322
42
-0.46307255762833366
10
-2.1000000000000001
20
18.745399435594859
10
-2.1000000000000005
20
10
10
2.1000000000000005
20
10
10
2.1000000000000005
20
18.745399435594855
42
-0.46307255762833477
10
3.2631578947368434
20
19.731999405889326
42
-0.18181879076908938
10
15.456833805591195
20
12.691977336346497
42
-0.46307255762833543
10
15.183992115311636
20
11.191353065744739
10
7.6102540378443919
20
6.8186533479473157
10
9.7102540378443898
20
3.181346652052671
10
17.28399211531163
20
7.5540463698500959
42
-0.46307255762833494
10
18.719991700328031
20
7.0400220695428022
42
-0.18181879076908916
0
ENDSEC
0
SECTION
2
OBJECTS
0
DICTIONARY
5
C
100
AcDbDictionary
3
ACAD_GROUP
350
D
3
ACAD_MLINESTYLE
350
17
0
DICTIONARY
5
D
100
AcDbDictionary
0
DICTIONARY
5
1A
330
C
100
AcDbDictionary
0
DICTIONARY
5
17
100
AcDbDictionary
0
ENDSEC
0
EOF
